<?xml version="1.0" encoding="iso-8859-1"?>
<!-- Uploaded to: SVG Repo, www.svgrepo.com, Generator: SVG Repo Mixer Tools -->
<svg height="800px" width="800px" version="1.1" id="Layer_1" xmlns="http://www.w3.org/2000/svg" xmlns:xlink="http://www.w3.org/1999/xlink" 
	 viewBox="0 0 392.598 392.598" xml:space="preserve">
<path style="fill:#FFFFFF;" d="M76.412,326.853h85.075c6.012,0,10.925-4.848,10.925-10.925V32.97
	c0-6.012-4.848-10.925-10.925-10.925H76.412c-6.012,0-10.925,4.848-10.925,10.925v282.958
	C65.487,322.004,70.4,326.853,76.412,326.853z"/>
<path style="fill:#FFC10D;" d="M231.564,326.853h85.075c5.107,0,9.374-3.556,10.602-8.275l0.388-285.608
	c0-6.012-4.848-10.925-10.925-10.925h-85.139c-6.012,0-10.925,4.848-10.925,10.925v282.958
	C220.574,322.004,225.552,326.853,231.564,326.853z"/>
<g>
	<path style="fill:#FFFFFF;" d="M118.885,255.677c-5.43,0-9.826,4.396-9.826,9.826c0,5.43,4.396,9.826,9.826,9.826
		c5.43,0,9.826-4.396,9.826-9.826C128.711,260.073,124.315,255.677,118.885,255.677z"/>
	<path style="fill:#FFFFFF;" d="M274.036,255.677c-5.43,0-9.826,4.396-9.826,9.826c0,5.43,4.396,9.826,9.826,9.826
		c5.43,0,9.826-4.396,9.826-9.826C283.863,260.073,279.467,255.677,274.036,255.677z"/>
</g>
<g>
	<path style="fill:#194F82;" d="M118.885,296.921c17.455,0,31.612-14.222,31.612-31.612c0-17.455-14.222-31.612-31.612-31.612
		s-31.612,14.222-31.612,31.612C87.273,282.828,101.495,296.921,118.885,296.921z M118.885,255.547c5.43,0,9.826,4.396,9.826,9.826
		s-4.396,9.826-9.826,9.826c-5.43,0-9.826-4.396-9.826-9.826S113.519,255.547,118.885,255.547z"/>
	<path style="fill:#194F82;" d="M98.198,87.143h41.438c6.012,0,10.925-4.848,10.925-10.925c0-6.012-4.848-10.925-10.925-10.925
		H98.198c-6.012,0-10.925,4.848-10.925,10.925C87.273,82.295,92.186,87.143,98.198,87.143z"/>
	<path style="fill:#194F82;" d="M98.198,140.994h41.438c6.012,0,10.925-4.848,10.925-10.925c0-6.012-4.848-10.925-10.925-10.925
		H98.198c-6.012,0-10.925,4.848-10.925,10.925C87.273,136.145,92.186,140.994,98.198,140.994z"/>
	<path style="fill:#194F82;" d="M274.036,296.921c17.455,0,31.612-14.222,31.612-31.612c0-17.455-14.222-31.612-31.612-31.612
		s-31.612,14.222-31.612,31.612C242.489,282.828,256.582,296.921,274.036,296.921z M274.036,255.547c5.43,0,9.826,4.396,9.826,9.826
		s-4.396,9.826-9.826,9.826c-5.43,0-9.826-4.396-9.826-9.826C264.275,259.943,268.671,255.547,274.036,255.547z"/>
	<path style="fill:#194F82;" d="M253.35,87.143h41.438c6.012,0,10.925-4.848,10.925-10.925c0-6.012-4.848-10.925-10.925-10.925
		H253.35c-6.012,0-10.925,4.848-10.925,10.925C242.489,82.295,247.337,87.143,253.35,87.143z"/>
	<path style="fill:#194F82;" d="M253.35,140.994h41.438c6.012,0,10.925-4.848,10.925-10.925c0-6.012-4.848-10.925-10.925-10.925
		H253.35c-6.012,0-10.925,4.848-10.925,10.925C242.489,136.145,247.337,140.994,253.35,140.994z"/>
	<path style="fill:#194F82;" d="M381.737,203.378h-32.388V32.97c0-18.036-14.675-32.711-32.711-32.711h-85.075
		c-18.036,0-32.711,14.675-32.711,32.711v282.958c0,3.879,0.711,7.499,1.939,10.925h-8.404c1.228-3.426,1.939-7.111,1.939-10.925
		V32.97c0-18.036-14.675-32.711-32.711-32.711H76.412c-18.036,0-32.711,14.675-32.711,32.711v170.473H10.925
		C4.913,203.442,0,208.291,0,214.368v167.046c0,6.012,4.848,10.925,10.925,10.925h370.747c6.012,0,10.925-4.848,10.925-10.925
		V214.368C392.598,208.291,387.749,203.378,381.737,203.378z M220.574,32.97c0-6.012,4.848-10.925,10.925-10.925h85.075
		c6.012,0,10.925,4.848,10.925,10.925l-0.388,285.608c-1.164,4.719-5.43,8.275-10.602,8.275h-84.945
		c-6.012,0-10.925-4.848-10.925-10.925V32.97H220.574z M65.487,32.97c0-6.012,4.848-10.925,10.925-10.925h85.075
		c6.012,0,10.925,4.848,10.925,10.925v282.958c0,6.012-4.848,10.925-10.925,10.925H76.412c-6.012,0-10.925-4.848-10.925-10.925
		C65.487,315.992,65.487,32.97,65.487,32.97z M370.812,370.424H21.851V225.164h21.786v112.485c0,6.012,4.848,10.925,10.925,10.925
		h283.539c6.012,0,10.925-4.848,10.925-10.925l0.388-112.485h21.463v145.261H370.812z"/>
</g>
<path style="fill:#56ACE0;" d="M349.026,337.778c0,6.012-4.848,10.925-10.925,10.925H54.626c-6.012,0-10.925-4.848-10.925-10.925
	V225.293H21.851v145.261h348.962V225.228h-21.463L349.026,337.778z"/>
</svg>